<?xml version="1.0" encoding="UTF-8" standalone="no"?>
<!-- Created with Inkscape (http://www.inkscape.org/) -->

<svg
   xmlns:dc="http://purl.org/dc/elements/1.1/"
   xmlns:cc="http://creativecommons.org/ns#"
   xmlns:rdf="http://www.w3.org/1999/02/22-rdf-syntax-ns#"
   xmlns:svg="http://www.w3.org/2000/svg"
   xmlns="http://www.w3.org/2000/svg"
   xmlns:sodipodi="http://sodipodi.sourceforge.net/DTD/sodipodi-0.dtd"
   xmlns:inkscape="http://www.inkscape.org/namespaces/inkscape"
   width="166mm"
   height="166mm"
   viewBox="0 0 166 166"
   version="1.1"
   id="svg4624"
   inkscape:version="0.92.1 r15371"
   sodipodi:docname="icon.svg"
   inkscape:export-filename="D:\1Projets\ztoolbox\icon_128.png"
   inkscape:export-xdpi="30"
   inkscape:export-ydpi="30">
  <defs
     id="defs4618">
    <clipPath
       clipPathUnits="userSpaceOnUse"
       id="clipPath20-8">
      <path
         d="M 0,720 H 720 V 0 H 0 Z"
         id="path18-5"
         inkscape:connector-curvature="0" />
    </clipPath>
    <clipPath
       clipPathUnits="userSpaceOnUse"
       id="clipPath28-4">
      <path
         d="M 125.921,594.079 H 594.079 V 125.921 H 125.921 Z"
         id="path26-7"
         inkscape:connector-curvature="0" />
    </clipPath>
  </defs>
  <sodipodi:namedview
     id="base"
     pagecolor="#ffffff"
     bordercolor="#666666"
     borderopacity="1.0"
     inkscape:pageopacity="0.0"
     inkscape:pageshadow="2"
     inkscape:zoom="0.35"
     inkscape:cx="-597.29566"
     inkscape:cy="317.81961"
     inkscape:document-units="mm"
     inkscape:current-layer="layer1"
     showgrid="false"
     fit-margin-top="0"
     fit-margin-left="0"
     fit-margin-right="0"
     fit-margin-bottom="0"
     inkscape:window-width="1920"
     inkscape:window-height="1017"
     inkscape:window-x="1352"
     inkscape:window-y="-8"
     inkscape:window-maximized="1" />
  <metadata
     id="metadata4621">
    <rdf:RDF>
      <cc:Work
         rdf:about="">
        <dc:format>image/svg+xml</dc:format>
        <dc:type
           rdf:resource="http://purl.org/dc/dcmitype/StillImage" />
        <dc:title></dc:title>
      </cc:Work>
    </rdf:RDF>
  </metadata>
  <g
     inkscape:label="Calque 1"
     inkscape:groupmode="layer"
     id="layer1"
     transform="translate(-25.523497,-66.923096)">
    <g
       id="g22"
       transform="matrix(0.35277777,0,0,-0.35277777,-18.89888,277.34523)"
       style="fill:#151515;fill-opacity:1">
      <g
         id="g24"
         style="fill:#151515;fill-opacity:1" />
      <g
         id="g36"
         style="fill:#151515;fill-opacity:1">
        <g
           clip-path="url(#clipPath28-4)"
           id="g34"
           style="opacity:1;fill:#151515;fill-opacity:1">
          <g
             transform="translate(594.0787,360)"
             id="g32"
             style="fill:#151515;fill-opacity:1">
            <path
               d="m 0,0 c 0,-129.278 -104.801,-234.079 -234.079,-234.079 -129.278,0 -234.078,104.801 -234.078,234.079 0,129.278 104.8,234.079 234.078,234.079 C -104.801,234.079 0,129.278 0,0"
               style="opacity:1;fill:#151515;fill-opacity:1;fill-rule:nonzero;stroke:none"
               id="path30"
               inkscape:connector-curvature="0" />
          </g>
        </g>
      </g>
    </g>
    <g
       id="g38"
       transform="matrix(0.35277777,0,0,-0.35277777,81.406176,146.46344)">
      <path
         d="m 0,0 c -23.443,0 -42.446,19.004 -42.446,42.446 0,23.443 19.003,42.447 42.446,42.447 23.443,0 42.446,-19.004 42.446,-42.447 C 42.446,19.004 23.443,0 0,0 M 98.452,-20.963 81.01,-3.521 c 3.754,6.603 6.724,13.705 8.784,21.189 h 24.659 V 67.225 H 89.794 c -2.06,7.484 -5.03,14.586 -8.784,21.189 L 98.452,105.856 63.41,140.898 45.967,123.456 c -6.602,3.755 -13.704,6.724 -21.188,8.785 V 156.9 h -49.558 v -24.659 c -7.484,-2.061 -14.586,-5.03 -21.188,-8.785 L -63.41,140.898 -98.452,105.856 -81.01,88.414 c -3.754,-6.603 -6.724,-13.705 -8.784,-21.189 h -24.659 V 17.668 h 24.659 c 2.06,-7.484 5.03,-14.586 8.784,-21.189 l -17.442,-17.442 35.042,-35.043 17.443,17.443 c 6.602,-3.755 13.704,-6.724 21.188,-8.785 v -24.659 h 49.558 v 24.659 c 7.484,2.061 14.586,5.03 21.188,8.785 L 63.41,-56.006 Z"
         style="fill:#4a8691;fill-opacity:1;fill-rule:nonzero;stroke:none"
         id="path40"
         inkscape:connector-curvature="0" />
    </g>
    <g
       id="g42"
       transform="matrix(0.35277777,0,0,-0.35277777,156.50106,151.42607)">
      <path
         d="m 0,0 c -1.969,-16.553 -16.984,-28.377 -33.538,-26.408 -16.553,1.968 -28.377,16.984 -26.408,33.537 1.969,16.554 16.984,28.377 33.537,26.409 C -9.855,31.569 1.969,16.554 0,0 m 48.766,-23.544 4.161,34.994 -17.412,2.071 c -0.827,5.457 -2.327,10.722 -4.424,15.7 L 44.872,40.073 23.07,67.76 9.289,56.908 c -4.347,3.206 -9.113,5.899 -14.224,7.983 l 2.07,17.412 -34.994,4.162 -2.07,-17.413 c -5.458,-0.826 -10.722,-2.327 -15.7,-4.424 L -66.481,78.41 -94.168,56.608 -83.317,42.827 c -3.206,-4.347 -5.899,-9.113 -7.982,-14.225 l -17.413,2.071 -4.162,-34.994 17.413,-2.071 c 0.827,-5.458 2.327,-10.722 4.424,-15.7 l -13.781,-10.852 21.801,-27.687 13.782,10.852 c 4.347,-3.206 9.113,-5.899 14.224,-7.983 l -2.071,-17.412 34.994,-4.162 2.071,17.413 c 5.458,0.826 10.723,2.327 15.7,4.424 L 6.535,-71.281 34.222,-49.479 23.37,-35.698 c 3.206,4.347 5.9,9.113 7.983,14.225 z"
         style="fill:#38b382;fill-opacity:1;fill-rule:nonzero;stroke:none"
         id="path44"
         inkscape:connector-curvature="0" />
    </g>
    <g
       id="g46"
       transform="matrix(0.35277777,0,0,-0.35277777,128.19347,194.37412)">
      <path
         d="m 0,0 c -5.509,-9.089 -17.343,-11.991 -26.432,-6.482 -9.089,5.508 -11.991,17.342 -6.482,26.431 5.509,9.089 17.342,11.991 26.432,6.483 C 2.606,20.923 5.509,9.089 0,0 M 36.615,11.424 31.263,33.245 20.401,30.581 c -1.677,3.007 -3.733,5.828 -6.15,8.385 l 5.794,9.561 -19.213,11.645 -5.795,-9.56 c -3.386,0.959 -6.837,1.477 -10.28,1.573 l -2.663,10.861 -21.821,-5.352 2.664,-10.861 c -3.008,-1.677 -5.828,-3.733 -8.386,-6.151 l -9.56,5.795 -11.646,-19.214 9.561,-5.795 c -0.96,-3.385 -1.478,-6.837 -1.573,-10.279 l -10.862,-2.664 5.352,-21.821 10.861,2.664 c 1.678,-3.007 3.734,-5.827 6.151,-8.385 l -5.795,-9.561 19.214,-11.645 5.795,9.56 c 3.386,-0.959 6.837,-1.477 10.279,-1.573 l 2.664,-10.861 21.821,5.352 -2.664,10.861 c 3.008,1.678 5.828,3.733 8.385,6.151 l 9.561,-5.795 11.646,19.214 -9.561,5.795 c 0.959,3.385 1.477,6.837 1.573,10.279 z"
         style="fill:#9896a4;fill-opacity:1;fill-rule:nonzero;stroke:none"
         id="path48"
         inkscape:connector-curvature="0" />
    </g>
  </g>
</svg>
