<?xml version="1.0" encoding="UTF-8" standalone="no"?>
<svg
   xmlns:dc="http://purl.org/dc/elements/1.1/"
   xmlns:cc="http://creativecommons.org/ns#"
   xmlns:rdf="http://www.w3.org/1999/02/22-rdf-syntax-ns#"
   xmlns:svg="http://www.w3.org/2000/svg"
   xmlns="http://www.w3.org/2000/svg"
   xmlns:sodipodi="http://sodipodi.sourceforge.net/DTD/sodipodi-0.dtd"
   xmlns:inkscape="http://www.inkscape.org/namespaces/inkscape"
   enable-background="new 0 0 595.28 841.89"
   version="1.1"
   viewBox="0 0 299.99999 299.99999"
   xml:space="preserve"
   id="svg20"
   sodipodi:docname="help-1724292.svg"
   width="300"
   height="300"
   inkscape:version="0.92.1 r15371"><metadata
     id="metadata26"><rdf:RDF><cc:Work
         rdf:about=""><dc:format>image/svg+xml</dc:format><dc:type
           rdf:resource="http://purl.org/dc/dcmitype/StillImage" /><dc:title></dc:title></cc:Work></rdf:RDF></metadata><defs
     id="defs24" /><sodipodi:namedview
     pagecolor="#ffffff"
     bordercolor="#666666"
     borderopacity="1"
     objecttolerance="10"
     gridtolerance="10"
     guidetolerance="10"
     inkscape:pageopacity="0"
     inkscape:pageshadow="2"
     inkscape:window-width="1361"
     inkscape:window-height="774"
     id="namedview22"
     showgrid="false"
     fit-margin-top="0"
     fit-margin-left="0"
     fit-margin-right="0"
     fit-margin-bottom="0"
     inkscape:zoom="0.28032165"
     inkscape:cx="-515.65783"
     inkscape:cy="134.995"
     inkscape:window-x="1755"
     inkscape:window-y="206"
     inkscape:window-maximized="0"
     inkscape:current-layer="svg20" /><g
     display="none"
     id="g6"
     style="display:none"
     transform="translate(-162.26001,-255.94001)"><path
       d="m 297.85,349.1 c 0,6.256 -4.941,11.327 -11.035,11.327 h -177.93 c -6.095,0 -11.035,-5.071 -11.035,-11.327 V 171.76 c 0,-6.257 4.94,-11.328 11.035,-11.328 h 177.93 c 6.094,0 11.035,5.071 11.035,11.328 z"
       display="inline"
       id="path2"
       inkscape:connector-curvature="0"
       style="display:inline;fill:#90a4ae" /><path
       d="m 197.85,160.43 h -88.965 c -6.095,0 -11.035,5.071 -11.035,11.328 v 177.34 c 0,6.256 4.94,11.327 11.035,11.327 h 88.965 v -200 z"
       display="inline"
       id="path4"
       inkscape:connector-curvature="0"
       style="display:inline;fill:#78909c" /></g><circle
     cx="150"
     cy="150"
     r="150"
     id="circle8"
     style="fill:#00a995" /><path
     d="M 150.55999,0.009993 V 299.99999 c 82.587,-0.3 149.44,-67.335 149.44,-149.99 0,-82.656997 -66.858,-149.689997 -149.44,-149.989997 z"
     id="path10"
     inkscape:connector-curvature="0"
     style="fill:#00a99d" /><path
     d="m 90.90999,109.51999 c 0,-7.64 2.452,-15.382 7.359,-23.223 4.904,-7.842 12.064,-14.336 21.475,-19.483997 9.41,-5.146 20.389,-7.722 32.936,-7.722 11.66,0 21.957,2.153 30.885,6.455 8.927,4.304 15.822,10.154997 20.69,17.553997 4.865,7.401 7.298,15.442 7.298,24.128 0,6.837 -1.387,12.83 -4.161,17.976 -2.775,5.148 -6.075,9.591 -9.894,13.331 -3.821,3.74 -10.678,10.035 -20.57,18.88 -2.734,2.495 -4.927,4.687 -6.575,6.575 -1.648,1.891 -2.875,3.619 -3.679,5.188 -0.806,1.567 -1.43,3.137 -1.87,4.704 -0.443,1.569 -1.107,4.324 -1.991,8.265 -1.528,8.365 -6.313,12.547 -14.355,12.547 -4.184,0 -7.703,-1.367 -10.557,-4.102 -2.856,-2.733 -4.283,-6.796 -4.283,-12.186 0,-6.756 1.044,-12.607 3.137,-17.554 2.09,-4.946 4.865,-9.29 8.324,-13.029 3.458,-3.74 8.123,-8.183 13.995,-13.331 5.146,-4.503 8.867,-7.902 11.16,-10.194 2.291,-2.292 4.222,-4.845 5.79,-7.661 1.568,-2.814 2.353,-5.87 2.353,-9.168 0,-6.434 -2.394,-11.863 -7.178,-16.287 -4.787,-4.422 -10.96,-6.635 -18.519,-6.635 -8.849,0 -15.364,2.232 -19.545,6.696 -4.183,4.463 -7.721,11.039 -10.617,19.725 -2.735,9.09 -7.923,13.632 -15.563,13.632 -4.505,0 -8.305,-1.587 -11.401,-4.765 -3.097,-3.175 -4.644,-6.614 -4.644,-10.315 z m 58.874,132.22 c -4.906,0 -9.19,-1.589 -12.848,-4.766 -3.661,-3.177 -5.489,-7.618 -5.489,-13.331 0,-5.066 1.768,-9.329 5.308,-12.788 3.538,-3.457 7.881,-5.188 13.029,-5.188 5.067,0 9.329,1.73 12.789,5.188 3.457,3.459 5.188,7.722 5.188,12.788 0,5.632 -1.811,10.055 -5.429,13.271 -3.62,3.216 -7.804,4.826 -12.548,4.826 z"
     id="path12"
     inkscape:connector-curvature="0"
     style="fill:#ffffff" /><g
     id="g18"
     style="fill:#d4effc"
     transform="translate(-147.26001,-270.94001)"><path
       d="m 330.82,336.49 c -8.928,-4.302 -19.225,-6.455 -30.885,-6.455 -0.713,0 -1.418,0.011 -2.121,0.027 v 25.498 c 0.699,-0.031 1.39,-0.069 2.121,-0.069 7.559,0 13.731,2.213 18.519,6.635 4.784,4.424 7.178,9.854 7.178,16.287 0,3.298 -0.784,6.354 -2.353,9.168 -1.568,2.816 -3.499,5.369 -5.79,7.661 -2.293,2.292 -6.014,5.691 -11.16,10.194 -3.201,2.807 -6.03,5.396 -8.514,7.783 v 52.302 c 6.773,-0.69 10.864,-4.825 12.253,-12.431 0.884,-3.94 1.548,-6.695 1.991,-8.265 0.44,-1.567 1.064,-3.137 1.87,-4.704 0.804,-1.569 2.03,-3.298 3.679,-5.188 1.648,-1.889 3.841,-4.08 6.575,-6.575 9.893,-8.846 16.749,-15.141 20.57,-18.88 3.818,-3.74 7.118,-8.183 9.894,-13.331 2.774,-5.146 4.161,-11.139 4.161,-17.976 0,-8.687 -2.433,-16.728 -7.298,-24.128 -4.867,-7.398 -11.763,-13.25 -20.69,-17.553 z"
       id="path14"
       inkscape:connector-curvature="0" /><path
       d="m 315.02,494.59 c 0,-5.066 -1.73,-9.329 -5.188,-12.788 -3.28,-3.277 -7.289,-4.983 -12.013,-5.153 v 36.005 c 4.423,-0.168 8.353,-1.755 11.772,-4.792 3.618,-3.218 5.429,-7.64 5.429,-13.272 z"
       id="path16"
       inkscape:connector-curvature="0" /></g></svg>