<?xml version="1.0" encoding="UTF-8" standalone="no"?>
<!DOCTYPE svg PUBLIC "-//W3C//DTD SVG 1.1//EN" "http://www.w3.org/Graphics/SVG/1.1/DTD/svg11.dtd">
<svg width="100%" height="100%" viewBox="0 0 593 593" version="1.1" xmlns="http://www.w3.org/2000/svg" xmlns:xlink="http://www.w3.org/1999/xlink" xml:space="preserve" style="fill-rule:evenodd;clip-rule:evenodd;stroke-linejoin:round;stroke-miterlimit:1.41421;">
    <g id="Ebene-1" transform="matrix(1,0,0,1,-9,-100)">
        <path d="M601.165,396.082C601.165,559.603 468.607,692.165 305.083,692.165C141.562,692.165 9,559.603 9,396.082C9,232.561 141.562,100 305.083,100C468.607,100 601.165,232.561 601.165,396.082" style="fill:rgb(30,30,30);"/>
        <path d="M298.174,605.234L308.136,605.234L308.136,537.216L331.489,537.216L331.489,528.841L274.935,528.841L274.935,537.216L298.174,537.216L298.174,605.234Z" style="fill:white;fill-rule:nonzero;"/>
        <path d="M372.191,605.234L399.504,528.841L388.963,528.841L376.044,566.585C372.644,576.567 369.47,586.203 367.317,595.045L367.089,595.045C365.05,586.089 362.216,576.794 358.93,566.477L347.031,528.841L336.377,528.841L361.309,605.234L372.191,605.234Z" style="fill:white;fill-rule:nonzero;"/>
        <path d="M155.905,187.53L239.044,187.53C245.996,187.53 251.596,193.123 251.596,200.08L251.596,593.297C251.596,600.248 245.996,605.846 239.044,605.846L155.905,605.846C148.954,605.846 143.355,600.248 143.355,593.297L143.355,200.08C143.355,193.123 148.954,187.53 155.905,187.53" style="fill:white;fill-rule:nonzero;"/>
        <path d="M275.04,259.285L275.04,205.225C275.04,191.918 288.437,182.012 301.68,189.797C312.292,196.03 524.36,321.878 542.462,332.64C554.348,339.707 554.144,356.57 542.462,363.649C529.428,371.544 316.549,498.027 301.132,506.814C289.846,513.258 275.04,506.139 275.04,491.478L275.04,437.344C275.04,386.193 363.576,371.544 376.603,363.649C388.292,356.57 388.492,339.707 376.603,332.64C358.506,321.878 275.04,310.296 275.04,259.285" style="fill:white;"/>
    </g>
</svg>
