<?xml version="1.0" encoding="UTF-8" standalone="no"?>
<!DOCTYPE svg PUBLIC "-//W3C//DTD SVG 1.1//EN" "http://www.w3.org/Graphics/SVG/1.1/DTD/svg11.dtd" [
<!ENTITY ns_flows "http://ns.adobe.com/Flows/1.0/">
	<!ENTITY ns_svg "http://www.w3.org/2000/svg">
	<!ENTITY ns_xlink "http://www.w3.org/1999/xlink">
]>
<svg enable-background="new 0 0 448 433" viewBox="0 0 448 433" xml:space="preserve" xmlns="http://www.w3.org/2000/svg"><defs><radialGradient cx="216.7" cy="393.79" gradientUnits="userSpaceOnUse" id="XMLID_1_" r="296.7">
			<stop offset="0" stop-color="#f4d708"></stop>
			<stop offset="1" stop-color="#fcb400"></stop>
		</radialGradient></defs>
		
		
		<path d="m8.551,390.5 184.85-368.8s26.409-31.504 52.815,0 180.19,370.65 180.19,370.65 3.105,18.534-27.961,18.534-361.94,0-361.94,0-23.299,0-27.959-20.38z" fill="url(#XMLID_1_)"></path>
		<path d="m8.551,390.5 184.85-368.8s26.409-31.504 52.815,0 180.19,370.65 180.19,370.65 3.105,18.534-27.961,18.534-361.94,0-361.94,0-23.299,0-27.959-20.38z" fill="none" stroke="#e2a713" stroke-width="5"></path>


<path d="m212.5,292.63c-13.168-79.969-19.75-123.12-19.75-129.45 0-7.703 2.551-13.926 7.66-18.676s10.871-7.121 17.293-7.121c6.949,0 12.82,2.535 17.609,7.598s7.188,11.023 7.188,17.883c0,6.543-6.668,49.801-20,129.77h-10zm27,38.17c0,6.098-2.156,11.301-6.469,15.613s-9.461,6.465-15.453,6.465c-6.098,0-11.301-2.156-15.613-6.465s-6.465-9.516-6.465-15.613c0-5.992 2.152-11.141 6.465-15.453s9.516-6.469 15.613-6.469c5.992,0 11.141,2.156 15.453,6.469s6.48,9.45 6.48,15.44z"></path>
</svg>
